<svg width="216" height="32" viewBox="0 0 216 32" fill="none" xmlns="http://www.w3.org/2000/svg"><g clip-path="url(#clip0_2030_28)"><path d="M25.5945 3.68884H2.95886V9.11548H3.10089C4.99459 7.90233 7.24336 7.11526 9.52763 7.11526H11.7764V22.5401C11.7764 23.6467 11.6699 24.7888 11.5634 25.6114C11.2763 26.434 10.6698 27.5406 10.3147 28.1117V28.3247H18.2416V28.1117C17.8836 27.5406 17.277 26.434 16.9929 25.6114C16.8864 24.7888 16.7799 23.6467 16.7799 22.5401V7.11526H19.0287C21.3129 7.11526 23.5617 7.89937 25.4554 9.11548H25.5974V3.68884H25.5945Z" fill="#FF0000"></path><path d="M47.659 26.147C47.1589 25.2179 46.6589 24.1112 46.0878 22.7205L38.5189 3.68884H33.6989L26.2365 22.7205C25.7365 23.9692 25.2009 25.2208 24.7009 26.147C24.3783 26.7535 23.9167 27.5406 23.5587 28.1117V28.3247H30.0565V28.0022C29.8079 27.5021 29.5209 26.7535 29.3434 26.147C29.4144 25.1824 29.7369 24.0757 30.237 22.7205L30.524 21.9364H40.2351L40.5221 22.7945C40.9867 24.0787 41.3062 25.1853 41.3802 26.1499C41.2737 26.7565 40.9156 27.5436 40.6316 28.1146V28.3277H48.7005V28.1146L47.6649 26.1499L47.659 26.147ZM31.5566 19.1491L32.6633 16.1843L35.4831 9.00896H35.5186L38.3739 16.2938L39.303 19.1491H31.5537H31.5566Z" fill="#FF0000"></path><path d="M72.425 3.68884L65.7468 22.0755H65.5692L58.82 3.68884H50.2865V3.90188C50.6445 4.47295 51.2511 5.57959 51.5352 6.40216C51.6417 7.22474 51.7482 8.36688 51.7482 9.47351V22.543C51.7482 23.6496 51.6417 24.7918 51.5352 25.6144C51.2481 26.4369 50.6416 27.5436 50.2865 28.1146V28.3277H56.7843V28.1146C56.4262 27.5436 55.8197 26.4369 55.5356 25.6144C55.4291 24.7918 55.3226 23.6496 55.3226 22.543V9.00896H55.5356L62.6754 28.3247H67.2114L74.1382 9.222H74.3158V22.5401C74.3158 23.6467 74.2092 24.7888 74.1027 25.6114C73.8157 26.434 73.2091 27.5406 72.8541 28.1117V28.3247H80.7099V28.1117C80.3519 27.5406 79.7453 26.434 79.4613 25.6114C79.3548 24.7888 79.2483 23.6467 79.2483 22.5401V9.47351C79.2483 8.36688 79.3548 7.22474 79.4613 6.40216C79.7483 5.57959 80.3549 4.47295 80.7099 3.90188V3.68884H72.425Z" fill="#FF0000"></path><path d="M98.8836 14.4356V14.3646C101.81 13.1869 103.381 11.5447 103.381 9.11548C103.381 5.72457 100.452 3.93739 94.6701 3.72435C93.7055 3.68884 92.4924 3.68884 91.8503 3.68884H84.4235V3.90188C84.7815 4.47295 85.3881 5.57959 85.6721 6.40216C85.7786 7.22474 85.8852 8.36688 85.8852 9.47351V22.5401C85.8852 23.6467 85.7786 24.7888 85.6721 25.6114C85.3851 26.434 84.7785 27.5406 84.4235 28.1117V28.3247H95.9218C101.313 28.3247 105.062 26.2535 105.062 21.0754C105.062 16.9329 102.526 15.0777 98.8836 14.4356ZM90.8857 6.50868H93.9215C96.7414 6.50868 98.1705 7.40228 98.1705 10.1156C98.1705 11.9708 97.5284 13.329 96.4218 14.2581H90.8887V6.50868H90.8857ZM95.0992 25.4309L90.8857 25.2179V16.9714H95.3477C98.1321 16.9714 99.8098 18.1845 99.8098 21.1139C99.8098 24.3627 97.8095 25.4339 95.0962 25.4339L95.0992 25.4309Z" fill="#FF0000"></path><path d="M113.364 17.9005V9.47351C113.364 8.36688 113.471 7.22474 113.578 6.40216C113.865 5.57959 114.471 4.47295 114.826 3.90188V3.68884H106.899V3.90188C107.257 4.47295 107.864 5.57959 108.148 6.40216C108.254 7.22474 108.361 8.36688 108.361 9.47351V17.794C108.361 24.9693 112.287 28.8632 118.966 28.8632C125.644 28.8632 129.464 24.8273 129.464 17.7585V9.54748C129.464 8.36984 129.57 7.2277 129.677 6.40512C129.964 5.58255 130.571 4.47591 130.926 3.90484V3.6918H124.034V3.90484C124.392 4.47591 124.999 5.58255 125.283 6.40512C125.389 7.2277 125.496 8.36984 125.496 9.54748V17.9034C125.496 22.4395 123.602 25.1528 119.534 25.1528C115.465 25.1528 113.356 22.0814 113.356 17.9034L113.364 17.9005Z" fill="#FF0000"></path><path d="M148.031 16.7554L148.28 16.6489C150.815 15.6132 153.635 13.0775 153.635 9.65105C153.635 6.22463 150.28 3.68884 145.566 3.68884H133.642V3.90188C134 4.47295 134.606 5.57959 134.891 6.40216C134.997 7.22474 135.104 8.36688 135.104 9.47351V22.5401C135.104 23.6467 134.997 24.7888 134.891 25.6114C134.603 26.434 133.997 27.5406 133.642 28.1117V28.3247H141.569V28.1117C141.211 27.5406 140.604 26.434 140.32 25.6114C140.214 24.7888 140.107 23.6467 140.107 22.5401V17.9685H142.249C142.607 17.9685 142.927 17.9685 143.214 17.933L150.105 28.3218H155.748V27.9992L148.037 16.7524L148.031 16.7554ZM146.495 15.1842C146.031 15.2197 145.282 15.2197 144.818 15.2197C144.424 15.2197 142.317 15.1487 140.104 15.0422V6.54419H143.747C146.676 6.54419 148.425 7.5443 148.425 10.7222C148.425 12.7934 147.602 14.1841 146.495 15.1842Z" fill="#FF0000"></path><path d="M163.991 22.5401V9.47351C163.991 8.36688 164.098 7.22474 164.204 6.40216C164.491 5.57959 165.098 4.47295 165.453 3.90188V3.68884H157.526V3.90188C157.884 4.47295 158.491 5.57959 158.775 6.40216C158.881 7.22474 158.988 8.36688 158.988 9.47351V22.543C158.988 23.6496 158.881 24.7918 158.775 25.6144C158.488 26.4369 157.881 27.5436 157.526 28.1146V28.3277H165.453V28.1146C165.095 27.5436 164.488 26.4369 164.204 25.6144C164.098 24.7918 163.991 23.6496 163.991 22.543V22.5401Z" fill="#FF0000"></path><path d="M185.84 3.68884V3.90188C186.198 4.47295 186.804 5.57959 187.088 6.40216C187.195 7.22474 187.302 8.36688 187.302 9.47351V21.8625H187.231L176.593 3.68884H168.595V3.90188C168.953 4.47295 169.56 5.57959 169.844 6.40216C169.951 7.22474 170.057 8.36688 170.057 9.47351V22.543C170.057 23.6496 169.951 24.7918 169.844 25.6144C169.557 26.4369 168.95 27.5436 168.595 28.1146V28.3277H175.164V28.1146C174.806 27.5436 174.2 26.4369 173.915 25.6144C173.809 24.7918 173.702 23.6496 173.702 22.543V8.61543H173.773L185.485 28.3247H190.947V9.47351C190.947 8.36688 191.053 7.22474 191.16 6.40216C191.447 5.57959 192.054 4.47295 192.409 3.90188V3.68884H185.84Z" fill="#FF0000"></path><path d="M203.283 28.8603C209.496 28.8603 211.958 25.1113 211.958 21.2559C211.958 17.0779 209.316 15.0777 205.531 13.8645L204.425 13.5065C202.034 12.7224 199.892 12.0063 199.892 9.68653C199.892 7.36675 202.211 6.36664 204.105 6.36664C206.854 6.36664 209.067 7.6508 210.709 9.61552L210.996 9.509V5.08247C209.677 4.04685 207.141 3.15326 204.318 3.15326C199.463 3.15326 195.107 5.76006 195.107 10.5801C195.107 13.7225 196.962 16.1873 201.211 17.6845L202.425 18.1135C205.46 19.1846 207.245 19.8622 207.245 22.1495C207.245 24.4367 205.638 25.5759 203.283 25.5759C200.64 25.5759 197.498 24.1467 195.32 21.3979L195.033 21.5044V26.3245C196.353 27.6442 199.105 28.8603 203.28 28.8603H203.283Z" fill="#FF0000"></path></g><defs><clipPath id="clip0_2030_28"><rect width="208.999" height="25.707" fill="white" transform="translate(2.95886 3.15326)"></rect></clipPath></defs></svg>